<svg xmlns="http://www.w3.org/2000/svg" viewBox="0 0 24 24" width="240" height="240">
  <path fill="#0668E1" d="M17.5 8C15.57 8 14 9.57 14 11.5C14 11.5 14 12.5 13 12.5C12 12.5 12 11.5 12 11.5C12 9.57 10.43 8 8.5 8C6.57 8 5 9.57 5 11.5C5 13.43 6.57 15 8.5 15C10.43 15 12 13.43 12 11.5C12 11.5 12 10.5 13 10.5C14 10.5 14 11.5 14 11.5C14 13.43 15.57 15 17.5 15C19.43 15 21 13.43 21 11.5C21 9.57 19.43 8 17.5 8ZM8.5 13C7.67 13 7 12.33 7 11.5C7 10.67 7.67 10 8.5 10C9.33 10 10 10.67 10 11.5C10 12.33 9.33 13 8.5 13ZM17.5 13C16.67 13 16 12.33 16 11.5C16 10.67 16.67 10 17.5 10C18.33 10 19 10.67 19 11.5C19 12.33 18.33 13 17.5 13Z" />
</svg> 